PathFileType	4	(X/Y/Z)	D:\TRACE\spot_10-12-23\spot_arm_body_motion_1_4-platform.trc
DataRate	CameraRate	NumFrames	NumMarkers	Units	OrigDataRate	OrigDataStartFrame	OrigNumFrames
100.00	100.00	      67	5	mm	100.00	5251	      7000
Frame#	Time	Left_Front			Right_Front			Left_Aft			Right_Aft			Post			
		X1	Y1	Z1	X2	Y2	Z2	X3	Y3	Z3	X4	Y4	Z4	X5	Y5	Z5	

5251	52.500	-733.82379	28.96931	-646.78516	833.90564	26.97982	-622.05310	-662.07935	-1.68836	491.51746	747.69916	-4.27607	591.69666	67.95948	770.04523	-936.47351	
5252	52.510	-733.60767	29.37962	-646.68494	834.18103	27.57253	-621.88147	-661.91241	-1.98801	491.53149	747.81097	-4.69039	591.76099	68.25272	770.46948	-936.14667	
5253	52.520	-733.28680	29.78596	-646.54425	834.34595	28.04535	-621.68835	-661.79340	-2.24523	491.57385	748.04529	-5.01936	591.86993	68.62792	771.04559	-935.66656	
5254	52.530	-733.08710	30.28757	-646.46808	834.53418	28.34452	-621.58881	-661.65625	-2.47456	491.67920	748.31799	-5.42376	591.96826	68.61563	771.81122	-935.46545	
5255	52.540	-732.94946	30.67507	-646.35181	834.62805	28.78390	-621.47699	-661.53766	-2.76792	491.76666	748.48431	-5.66866	592.05475	68.73077	772.41180	-935.02496	
5256	52.550	-732.63239	30.87504	-646.22388	834.69452	29.07489	-621.37140	-661.40399	-3.16132	491.90448	748.61182	-6.06784	592.10345	68.81224	772.86383	-934.66931	
5257	52.560	-732.60785	31.22932	-646.12079	834.75031	29.39316	-621.28107	-661.29706	-3.44872	492.00208	748.58850	-6.22516	592.18164	68.88700	773.54150	-934.15594	
5258	52.570	-732.71497	31.66362	-645.97882	834.83173	29.76334	-621.20905	-661.24377	-3.75696	492.02576	748.72546	-6.64530	592.32172	68.82304	773.98761	-933.85791	
5259	52.580	-732.52679	32.00532	-645.90771	834.87939	30.19111	-621.10901	-661.23999	-3.90033	492.08105	748.79462	-6.89974	592.42657	69.17167	774.52100	-933.09735	
5260	52.590	-732.74292	32.41482	-645.75763	834.89148	30.77362	-621.08551	-661.24695	-4.09207	492.14868	748.89459	-7.11127	592.47681	68.83279	774.90070	-932.77209	
5261	52.600	-732.73132	32.81640	-645.64301	834.86841	31.02135	-621.03198	-661.22406	-4.21807	492.25311	748.90295	-7.33264	592.56018	68.90762	775.57385	-931.75153	
5262	52.610	-732.57880	33.09011	-645.61444	834.80505	31.29794	-620.93512	-661.29425	-4.44559	492.28613	748.81134	-7.65946	592.60730	69.02474	775.95575	-931.10797	
5263	52.620	-732.71588	33.37894	-645.35931	834.75751	31.47276	-620.81549	-661.24194	-4.73425	492.39294	748.77704	-7.97222	592.67786	68.95579	776.27258	-930.56696	
5264	52.630	-732.71259	33.62756	-645.40442	834.80530	31.72955	-620.74738	-661.20477	-4.92359	492.50626	748.77417	-8.25579	592.75427	68.75697	776.60968	-930.11255	
5265	52.640	-732.68359	33.90686	-645.28345	834.78027	32.08897	-620.60101	-661.14587	-5.14782	492.61908	748.73224	-8.49005	592.83618	68.83373	777.21216	-929.47369	
5266	52.650	-732.70056	34.23977	-645.23291	834.81549	32.42326	-620.49023	-661.11432	-5.38926	492.72940	748.78381	-8.69623	592.91089	68.88991	777.79486	-929.08984	
5267	52.660	-732.74396	34.67993	-645.07825	834.76740	32.77145	-620.41296	-661.14954	-5.70802	492.82864	748.78717	-8.96069	592.95874	68.81898	778.18945	-928.92810	
5268	52.670	-732.88354	35.08387	-644.93036	834.71545	33.07205	-620.38092	-661.30621	-6.00294	492.91214	748.70557	-9.33842	592.93622	68.81574	778.65576	-928.70465	
5269	52.680	-733.14355	35.51195	-644.90509	834.54370	33.41071	-620.31714	-661.45990	-6.27011	492.99393	748.52216	-9.61449	593.12927	68.61383	779.27423	-928.44769	
5270	52.690	-733.53949	35.82795	-644.77972	834.24200	33.89926	-620.20728	-661.66821	-6.44384	493.13281	748.26532	-9.91793	593.24933	68.24139	779.81934	-928.00757	
5271	52.700	-733.61218	36.24368	-644.88428	834.08099	34.35613	-620.05414	-661.99451	-6.61195	493.19461	747.99847	-10.24640	593.32343	67.99094	780.27222	-927.63171	
5272	52.710	-733.82751	36.60706	-644.77551	833.88971	34.63190	-619.98938	-662.28424	-6.77291	493.21622	747.59985	-10.49613	593.08478	67.79543	780.70923	-927.22296	
5273	52.720	-734.10236	36.83904	-644.65833	833.63593	34.86681	-619.91418	-662.65192	-6.90341	493.25940	747.45874	-10.68405	593.41638	67.84313	781.02386	-926.42377	
5274	52.730	-734.40698	37.02154	-644.53131	833.31757	35.10312	-619.84802	-662.84705	-7.11709	493.36481	747.27057	-10.91268	593.39667	67.22636	781.50433	-926.03217	
5275	52.740	-734.61163	37.19227	-644.45105	833.05737	35.24973	-619.82379	-663.00848	-7.31265	493.42795	747.02380	-11.12769	593.35986	67.09798	781.81317	-925.45685	
5276	52.750	-734.83716	37.37096	-644.37219	832.79590	35.43162	-619.74335	-663.22064	-7.44691	493.47284	746.75098	-11.29281	593.43439	66.81942	782.00592	-925.05981	
5277	52.760	-735.09918	37.55260	-644.32300	832.46112	35.63234	-619.61279	-663.53705	-7.54095	493.45099	746.50195	-11.30954	593.56537	66.48324	782.29492	-924.57605	
5278	52.770	-735.14746	37.58882	-644.39832	832.16907	35.79047	-619.56781	-663.96875	-7.62928	493.44916	746.08435	-11.51133	593.55865	65.99944	782.62280	-924.12415	
5279	52.780	-735.82892	37.89910	-644.25806	831.78760	35.97419	-619.46753	-664.32874	-7.88752	493.48434	745.66608	-11.71622	593.63330	65.67342	783.01642	-924.01221	
5280	52.790	-736.31384	38.18369	-644.18872	831.42053	36.25211	-619.41064	-664.71149	-8.05842	493.55161	745.05536	-11.91322	593.43762	66.04927	783.29980	-923.37158	
5281	52.800	-736.67853	38.45924	-644.20618	831.06726	36.44536	-619.37921	-665.09863	-8.17479	493.59293	744.83649	-12.11689	593.78571	65.09348	783.60913	-923.71332	
5282	52.810	-737.11285	38.72346	-644.05585	830.66687	36.67857	-619.38666	-665.42749	-8.29292	493.57935	744.47217	-12.29816	593.81958	64.56346	784.02228	-923.60931	
5283	52.820	-737.52502	38.99992	-644.09979	830.16187	36.95826	-619.33307	-665.87646	-8.39734	493.65878	744.12531	-12.46328	593.84821	64.14793	784.29419	-923.52100	
5284	52.830	-737.89728	39.25880	-644.02850	829.69690	37.22638	-619.28497	-666.34479	-8.58769	493.68649	743.75751	-12.63459	593.79407	63.75586	784.52679	-923.39258	
5285	52.840	-738.32904	39.51486	-643.94574	829.08929	37.11941	-619.21313	-666.89294	-8.75208	493.69711	743.33142	-12.79562	593.81970	63.31284	784.80713	-923.28955	
5286	52.850	-738.68555	39.78894	-643.88458	828.68250	37.26036	-619.23206	-667.27222	-8.90842	493.73053	742.85669	-12.95471	593.90167	63.12395	785.09344	-922.66870	
5287	52.860	-739.13129	39.89315	-643.80475	828.39618	37.63919	-619.24133	-667.67987	-9.05083	493.70877	742.33148	-13.17912	593.96802	62.43158	785.30621	-922.77014	
5288	52.870	-739.57220	40.05470	-643.75482	827.81763	37.92447	-619.19684	-668.13708	-9.13293	493.75034	741.73889	-13.14351	593.96478	61.70553	785.61115	-922.19922	
5289	52.880	-740.22540	40.27271	-643.72791	827.24707	38.07947	-619.17590	-668.69202	-9.18334	493.76721	741.24371	-13.46736	593.98590	61.30357	785.82361	-921.84302	
5290	52.890	-740.95282	40.45766	-643.83893	826.69751	38.15644	-619.06696	-669.30908	-9.22805	493.78424	740.61377	-13.49323	593.99048	60.80681	785.95355	-921.54077	
5291	52.900	-741.52106	40.55893	-643.76617	826.26471	38.24424	-619.01331	-669.89307	-9.29028	493.79004	740.14520	-13.58694	593.99792	60.20366	786.14557	-921.05212	
5292	52.910	-741.91290	40.61366	-643.62762	825.85364	38.31564	-619.00269	-670.26007	-9.40415	493.79327	739.71393	-13.77129	594.01721	59.72112	786.30200	-920.63214	
5293	52.920	-742.13983	40.59949	-643.69336	825.31940	38.47800	-618.92920	-670.64313	-9.45631	493.82513	739.25891	-13.66700	594.04486	59.51755	786.49542	-920.26465	
5294	52.930	-742.88171	40.77393	-643.52606	824.76447	38.60865	-618.88049	-671.24377	-9.57030	493.81467	738.76440	-13.79719	594.06763	58.71511	786.70081	-920.47241	
5295	52.940	-743.31744	40.98602	-643.53772	824.26697	38.83333	-618.79883	-672.00659	-9.73478	493.93542	738.03339	-14.11763	594.05225	58.24355	786.99304	-920.42743	
5296	52.950	-743.96222	41.15430	-643.58325	823.66339	38.94156	-618.77307	-672.54968	-9.78746	494.01022	737.42456	-14.26029	594.10065	57.53819	787.31158	-920.29681	
5297	52.960	-744.61609	41.31199	-643.62457	823.03192	39.08588	-618.75842	-673.03333	-9.90665	494.04782	736.89581	-14.40108	594.16791	56.97322	787.53625	-920.17780	
5298	52.970	-745.21027	41.34215	-643.60400	822.36511	39.21123	-618.77032	-673.75256	-10.01607	494.01044	736.26764	-14.42541	594.24164	56.37473	787.71149	-920.25232	
5299	52.980	-745.88556	41.46252	-643.47943	821.69952	39.31773	-618.76263	-674.35614	-10.09292	494.05200	735.58099	-14.50496	594.19037	56.05531	787.74115	-919.80469	
5300	52.990	-746.43976	41.62574	-643.47595	821.10895	39.42196	-618.74200	-674.76556	-10.11809	494.12488	735.10205	-14.51029	594.24072	55.58844	787.61359	-919.81604	
5301	53.000	-746.97064	41.60571	-643.36731	820.56866	39.44705	-618.68286	-675.36639	-10.16681	494.07837	734.60870	-14.64363	594.27240	54.49507	787.92670	-920.17676	
5302	53.010	-747.63885	41.66709	-643.31067	819.92334	39.44399	-618.67566	-676.13220	-10.25299	494.03455	733.89709	-14.76285	594.23627	53.77839	788.06073	-919.88220	
5303	53.020	-748.37024	41.67711	-643.44446	819.22845	39.46870	-618.70972	-676.82898	-10.29772	494.02505	733.08276	-14.79005	594.20337	53.28211	788.14227	-919.67285	
5304	53.030	-748.87756	41.69964	-643.39978	818.49738	39.56147	-618.73291	-677.37604	-10.40053	494.04587	732.43890	-14.73009	594.27313	52.61376	788.18884	-919.61029	
5305	53.040	-749.77454	41.83249	-643.33868	817.90570	39.58342	-618.69623	-678.12872	-10.47466	494.06381	731.82355	-14.80615	594.22009	51.85839	788.32214	-919.40747	
5306	53.050	-750.31018	41.78614	-643.29456	817.13525	39.70118	-618.55505	-678.91187	-10.51493	494.12393	731.03955	-14.93804	594.18475	51.31783	788.40210	-918.83221	
5307	53.060	-751.03815	41.80921	-643.23315	816.44037	39.72186	-618.61938	-679.52106	-10.57042	494.13660	730.22644	-14.82791	594.40533	50.48251	788.40509	-918.97473	
5308	53.070	-751.85126	41.97974	-643.33124	815.73578	39.81087	-618.72424	-680.13171	-10.67421	494.14273	729.78137	-14.89523	594.30127	49.85471	788.53369	-919.03241	
5309	53.080	-752.62445	42.13305	-643.30042	814.71747	39.60279	-618.85681	-680.80701	-10.71963	494.11298	728.99188	-14.91512	594.28076	49.04198	788.64795	-919.05255	
5310	53.090	-753.36719	42.21248	-643.21405	814.28900	40.01086	-618.72485	-681.60193	-10.69553	494.09128	728.14838	-15.04818	594.24579	48.26587	788.62036	-919.18298	
5311	53.100	-754.01270	42.21102	-643.24811	813.47083	40.21085	-618.64771	-682.46936	-10.66484	494.04694	727.25122	-15.17848	594.00903	47.55460	788.60339	-918.98273	
5312	53.110	-754.75916	42.15925	-643.29370	812.67981	40.07601	-618.65839	-683.23901	-10.59257	494.00507	726.70465	-15.13719	594.25635	46.89840	788.73169	-918.84869	
5313	53.120	-755.66351	42.14236	-643.38501	811.91516	39.91481	-618.67804	-684.09515	-10.59073	493.96707	725.78821	-15.09843	594.29095	46.47525	788.74963	-918.68109	
5314	53.130	-756.47949	42.15542	-643.36871	811.18890	39.90442	-618.65009	-684.83289	-10.60841	493.99063	725.09637	-15.01093	594.20886	45.05799	788.56073	-919.27271	
5315	53.140	-757.16699	42.23610	-643.30554	810.37561	39.87152	-618.68683	-685.58160	-10.56960	494.06262	724.54993	-15.06155	594.17914	44.42056	788.60822	-919.41089	
5316	53.150	-757.66241	42.04050	-643.32849	809.59735	39.84584	-618.67010	-686.41998	-10.58562	494.05151	723.55170	-15.15527	594.22980	43.76923	788.73108	-919.30048	
5317	53.160	-758.70880	42.26009	-643.24915	808.78497	39.86664	-618.73065	-687.12677	-10.63578	494.01407	722.60272	-15.16947	594.27582	42.96324	788.75000	-919.21191	
